<svg width="109" height="39" viewBox="0 0 109 39" fill="none" xmlns="http://www.w3.org/2000/svg">
<g clip-path="url(#clip0_5381_26091)">
<g clip-path="url(#clip1_5381_26091)">
<path d="M43.0127 11.6563C43.0127 11.2216 43.1854 10.8047 43.4928 10.4973C43.8002 10.1899 44.2171 10.0172 44.6518 10.0172C45.0866 10.0172 45.5034 10.1899 45.8108 10.4973C46.1182 10.8047 46.2909 11.2216 46.2909 11.6563C46.2751 12.0804 46.0954 12.4819 45.7898 12.7764C45.4841 13.0708 45.0763 13.2354 44.6518 13.2354C44.2274 13.2354 43.8195 13.0708 43.5138 12.7764C43.2082 12.4819 43.0285 12.0804 43.0127 11.6563" fill="#788894"/>
<path d="M68.8741 22.588C68.8741 21.6782 69.6069 20.9432 70.5098 20.9432C70.9457 20.9432 71.3638 21.1163 71.6721 21.4246C71.9803 21.7328 72.1535 22.1509 72.1535 22.5868C72.1535 23.0227 71.9803 23.4408 71.6721 23.7491C71.3638 24.0573 70.9457 24.2305 70.5098 24.2305C69.608 24.2305 68.8741 23.4943 68.8741 22.5868" fill="#788894"/>
<path d="M16.1127 21.8768C14.7019 21.8768 13.7202 20.7559 13.7202 19.1533C13.7202 17.5519 14.7018 16.4322 16.1138 16.4322C17.5326 16.4322 18.5245 17.5519 18.5245 19.1533C18.5245 20.781 17.5543 21.8768 16.1127 21.8768V21.8768ZM16.1127 14.0386C13.1267 14.0386 10.9591 16.1902 10.9591 19.1533C10.9591 22.1176 13.1278 24.2681 16.1127 24.2681C19.1112 24.2681 21.2867 22.1176 21.2867 19.1545C21.2867 16.1902 19.1112 14.0386 16.1138 14.0386H16.1127ZM39.8384 19.4101C39.7344 19.2092 39.6031 19.0236 39.448 18.8588L39.3567 18.7641L39.4526 18.6728C39.5896 18.5278 39.7299 18.3566 39.8646 18.158L42.5013 14.2406H39.3008L37.3204 17.3054C37.2085 17.4697 36.9826 17.5519 36.6435 17.5519H36.1927V11.758C36.1927 10.5995 35.4702 10.4419 34.6906 10.4419H33.355L33.3585 24.1174H36.1938V20.0151H36.4598C36.7828 20.0151 37.0019 20.0528 37.1035 20.2285L38.6672 23.1803C39.1044 23.9816 39.5393 24.1174 40.3588 24.1174H42.531L40.9125 21.4419L39.8395 19.4101H39.8384ZM53.6017 14.0158C52.159 14.0158 51.239 14.6572 50.723 15.1994L50.5519 15.3729L50.4902 15.1366C50.3395 14.5557 49.8282 14.2372 49.06 14.2372H47.7895L47.7976 24.114H50.6134V19.562C50.6134 19.1168 50.6705 18.731 50.7892 18.3783C51.102 17.3111 51.9763 16.6479 53.0687 16.6479C53.9476 16.6479 54.2912 17.1125 54.2912 18.311V22.613C54.2912 23.6357 54.7648 24.114 55.7887 24.114H57.1287L57.1242 17.8316C57.1242 15.3364 55.9063 14.0169 53.6017 14.0169V14.0158ZM44.686 14.2406H43.3517L43.3608 21.8779V24.1174H44.7842L44.8344 24.1197L45.4987 24.1174H46.1585V24.114H46.163L46.1687 15.7416C46.1687 14.7314 45.6859 14.2418 44.6872 14.2418L44.686 14.2406ZM27.1719 21.8768C25.7611 21.8768 24.7784 20.7559 24.7784 19.1533C24.7784 17.5519 25.7612 16.4322 27.1731 16.4322C28.5885 16.4322 29.5838 17.5519 29.5838 19.1533C29.5838 20.781 28.6136 21.8768 27.1731 21.8768H27.1719ZM27.1719 14.0386C24.1837 14.0386 22.015 16.1902 22.015 19.1533C22.015 22.1176 24.1837 24.2681 27.1731 24.2681C30.1671 24.2681 32.3472 22.1176 32.3472 19.1545C32.3472 16.1902 30.1671 14.0386 27.1731 14.0386" fill="#788894"/>
<path d="M87.5249 21.8773C86.1142 21.8773 85.1302 20.7564 85.1302 19.1538C85.1302 17.5524 86.1142 16.4326 87.5249 16.4326C88.9426 16.4326 89.9368 17.5524 89.9368 19.1538C89.9368 20.7815 88.9666 21.8773 87.5249 21.8773ZM87.5249 14.0391C84.5367 14.0391 82.3692 16.1907 82.3692 19.1538C82.3692 22.1181 84.5367 24.2686 87.5249 24.2686C90.52 24.2686 92.699 22.1181 92.699 19.155C92.699 16.1907 90.5189 14.0391 87.5249 14.0391" fill="#788894"/>
<path d="M63.0607 21.4421C61.5209 21.4421 60.9731 20.0998 60.9731 18.8408C60.9731 18.286 61.1134 16.4792 62.9134 16.4792C63.8072 16.4792 64.9977 16.7348 64.9977 18.9332C64.9977 21.0072 63.9442 21.4421 63.0607 21.4421V21.4421ZM66.4599 14.2146C65.9257 14.2146 65.5148 14.428 65.3082 14.8172L65.2306 14.9679L65.1004 14.8538C64.6461 14.4611 63.8312 13.9943 62.5083 13.9943C59.875 13.9943 58.1024 15.9724 58.1024 18.9138C58.1024 21.8541 59.9366 23.9087 62.5608 23.9087C63.4568 23.9087 64.1656 23.6987 64.7272 23.2741L64.944 23.1109V23.3848C64.944 24.7043 64.0914 25.4325 62.5448 25.4325C61.7926 25.4325 61.1089 25.2499 60.65 25.0832C60.0542 24.9029 59.7026 25.0524 59.4618 25.6517L59.2381 26.2041L58.9219 27.0123L59.1171 27.1161C60.1078 27.6412 61.3965 27.9551 62.5608 27.9551C64.9578 27.9551 67.7588 26.728 67.7588 23.2741L67.7691 14.2146H66.4599" fill="#788894"/>
<path d="M5.6274 21.7643L3.33542 21.762V19.0226C3.33542 18.4359 3.56257 18.1323 4.06365 18.0615H5.6274C6.74258 18.0615 7.46395 18.7646 7.46509 19.9026C7.46395 21.0715 6.76084 21.7632 5.6274 21.7632V21.7643ZM3.33542 14.3724V13.651C3.33542 13.0198 3.60253 12.7196 4.18808 12.6808H5.36148C6.36708 12.6808 6.96975 13.2823 6.96975 14.2902C6.96975 15.0573 6.55654 15.9533 5.39799 15.9533H3.33542V14.3724V14.3724ZM8.55406 17.1073L8.13968 16.8744L8.50153 16.5651C8.92272 16.2033 9.627 15.3894 9.627 13.9855C9.627 11.835 7.96051 10.447 5.37974 10.447H2.09924C1.73012 10.4605 1.38035 10.6155 1.12237 10.8798C0.864393 11.1442 0.718007 11.4976 0.713562 11.867V24.0688H5.43791C8.30632 24.0688 10.1577 22.5074 10.1577 20.0887C10.1577 18.7863 9.55966 17.6734 8.55406 17.1073" fill="#788894"/>
<path d="M105.277 14.0494C104.695 14.0515 104.122 14.1842 103.599 14.4377C103.076 14.6912 102.616 15.0589 102.254 15.5138L102.051 15.7718L101.891 15.483C101.368 14.5322 100.471 14.0494 99.2235 14.0494C97.9143 14.0494 97.0365 14.7799 96.6291 15.2136L96.362 15.5024L96.2592 15.1223C96.1108 14.5744 95.6235 14.2742 94.8861 14.2742H93.7024L93.691 24.1134H96.3791V19.7702C96.3791 19.389 96.427 19.0135 96.5218 18.6197C96.7786 17.5695 97.4839 16.4407 98.6699 16.5537C99.4004 16.6244 99.7589 17.1895 99.7589 18.2807V24.1134H102.466V19.7702C102.466 19.2942 102.511 18.9381 102.618 18.582C102.835 17.5798 103.572 16.5525 104.716 16.5525C105.545 16.5525 105.851 17.0205 105.851 18.2807V22.6752C105.851 23.6682 106.294 24.1134 107.288 24.1134H108.552L108.555 17.8321C108.555 15.3221 107.45 14.0494 105.277 14.0494V14.0494ZM80.8111 20.6971C80.8031 20.7073 79.6468 21.9264 78.123 21.9264C76.735 21.9264 75.3334 21.0749 75.3334 19.1744C75.3334 17.533 76.42 16.3859 77.9769 16.3859C78.4814 16.3859 79.0567 16.5662 79.1469 16.871L79.1595 16.9224C79.217 17.1322 79.3421 17.3171 79.5155 17.4486C79.6888 17.5801 79.9007 17.6507 80.1182 17.6494L81.5907 17.6517V16.3642C81.5907 14.6658 79.43 14.0494 77.9769 14.0494C74.8677 14.0494 72.6122 16.2135 72.6122 19.1949C72.6122 22.1741 74.8426 24.3359 77.9199 24.3359C80.5885 24.3359 82.0404 22.5816 82.0541 22.5644L82.1318 22.4686L80.9652 20.5338L80.8111 20.6971" fill="#788894"/>
</g>
</g>
<defs>
<clipPath id="clip0_5381_26091">
<rect width="108.343" height="38.4444" fill="white" transform="translate(0.462708)"/>
</clipPath>
<clipPath id="clip1_5381_26091">
<rect width="108.343" height="18.375" fill="white" transform="translate(0.462708 9.78564)"/>
</clipPath>
</defs>
</svg>
