<svg width="109" height="39" viewBox="0 0 109 39" fill="none" xmlns="http://www.w3.org/2000/svg">
<path d="M75.2022 32.8524H72.3734L91.8414 5.5918H94.6969L75.2022 32.8524Z" fill="#788894"/>
<path d="M23.2829 9.24772C26.0049 9.24772 28.9138 10.6755 28.9138 14.465C28.9138 16.3598 28.1132 17.614 26.7522 18.5081C28.1132 19.4021 28.9138 20.6563 28.9138 22.5511C28.9138 26.3406 26.0049 27.7684 23.2829 27.7684H14.6364V9.24772H23.2829ZM23.2562 11.5828H17.1316V17.3338H23.2562C25.1376 17.3338 26.4186 16.3598 26.4186 14.465C26.4186 12.5569 25.1376 11.5828 23.2562 11.5828ZM23.2562 19.6689H17.1316V25.4199H23.2562C25.1376 25.4199 26.4186 24.4459 26.4186 22.5511C26.4186 20.6563 25.1376 19.6689 23.2562 19.6689ZM59.7905 11.5828V17.3338H67.7965V19.6823H59.7905V25.4199H69.7714V27.7684H57.2953V9.24772H69.7714V11.5962H59.7905V11.5828ZM82.928 15.1322L78.7248 9.23438H75.8693L81.5136 17.1203L82.928 15.1322ZM86.3839 19.9625L84.9695 21.9507L89.1193 27.7684H91.9481L86.3839 19.9625ZM45.2995 20.1226C48.4352 19.8958 50.5969 18.001 50.5969 14.6785C50.5969 11.1959 48.1817 9.23438 44.7258 9.23438H35.759V11.5828H44.7124C46.7139 11.5828 48.0883 12.677 48.0883 14.6785C48.0883 16.68 46.7006 17.7742 44.7124 17.7742H35.759V27.755H38.2542V20.1093H42.1905L47.9816 27.755H51.0906L45.2995 20.1226Z" fill="#788894"/>
</svg>
