<svg width="110" height="39" viewBox="0 0 110 39" fill="none" xmlns="http://www.w3.org/2000/svg">
<path d="M7.21613 16.6507V27.0104H11.3498C16.4571 27.0104 17.0636 26.9784 18.5639 26.6113C20.8302 26.0526 22.6976 24.8554 23.9744 23.1474C24.533 22.3972 25.0118 21.4873 25.347 20.5615C26.2088 18.1192 26.129 14.7511 25.1555 12.3089C23.9425 9.26004 21.5484 7.31262 18.1329 6.57834C16.92 6.32294 16.9519 6.32294 11.9084 6.30698L7.21613 6.29102V16.6507ZM16.888 10.0582C18.5639 10.4093 19.7609 11.1277 20.6387 12.277C22.123 14.2403 22.3943 17.7681 21.2292 20.0667C20.3674 21.7587 19.0267 22.7484 16.9359 23.2113C16.505 23.307 16.3454 23.323 13.8556 23.339L11.2222 23.3549V16.6347V9.9145L13.8077 9.93047C16.2656 9.94643 16.4092 9.96239 16.888 10.0582ZM32.9441 12.7239C32.0982 12.8197 31.2523 13.0751 30.566 13.4103C29.3849 13.9849 28.4273 14.9906 27.9006 16.2037C27.7091 16.6347 27.5655 17.0657 27.6133 17.0976C27.6293 17.1136 28.3156 17.3051 29.1615 17.5286C30.0074 17.7521 30.7256 17.9436 30.7735 17.9596C30.8373 17.9756 30.8692 17.8958 30.981 17.6084C31.3959 16.3634 32.4334 15.661 33.8857 15.661C34.8593 15.661 35.5935 15.9004 36.1042 16.4272C36.599 16.9061 36.7426 17.353 36.7905 18.3427C36.8065 18.9493 36.8065 19.0131 36.7426 19.0131C36.6947 19.0131 36.3117 18.9333 35.8808 18.8216C34.572 18.5183 34.2688 18.4704 33.1675 18.4704C31.8109 18.4704 30.949 18.63 30.0553 19.0451C28.6667 19.6995 27.9166 20.769 27.7251 22.3493C27.5655 23.77 27.9964 25.0789 28.97 26.0047C30.0712 27.0423 31.5715 27.4573 33.3431 27.2179C34.8593 27.0103 35.9606 26.3559 36.7267 25.2066L36.9501 24.8714L36.9661 25.9409L36.982 27.0104H38.7057H40.4294L40.4135 22.1258L40.3975 17.2413L40.2698 16.7465C39.7112 14.5117 38.3067 13.2826 35.7371 12.8037C35.2902 12.7399 33.359 12.676 32.9441 12.7239ZM34.971 21.184C35.1945 21.2319 35.6892 21.3756 36.0883 21.5033C36.8863 21.7427 36.8384 21.6789 36.7586 22.2535C36.6149 23.2113 35.8808 23.9934 34.8434 24.2808C34.4763 24.3765 33.5186 24.4244 33.0877 24.3446C32.4493 24.2329 31.9067 23.8817 31.6673 23.4028C31.5236 23.1155 31.4917 22.5568 31.6034 22.2056C31.763 21.6789 32.2737 21.2798 32.9441 21.1202C33.391 21.0084 34.4443 21.0404 34.971 21.184ZM50.0375 12.7718C48.7128 13.0112 47.452 13.7295 46.6699 14.6873C46.5263 14.8469 46.3986 14.9906 46.3826 14.9906C46.3667 15.0065 46.3347 14.5596 46.3347 13.9849V12.9633H44.5153H42.6958V22.9239V32.8526H44.5791H46.4784L46.4943 29.0376L46.5103 25.2225L46.6859 25.478C47.5158 26.6751 49.1916 27.3615 51.0749 27.2817C53.3253 27.1859 55.1927 26.1963 56.3578 24.4723C58.0336 21.9822 58.0017 17.9277 56.262 15.3896C55.9428 14.9267 55.3204 14.2723 54.8575 13.9371C54.2032 13.4422 53.2775 13.0272 52.3677 12.8197C51.9049 12.7079 50.5163 12.692 50.0375 12.7718ZM51.0749 16.076C52.0485 16.3474 52.8944 17.0497 53.3573 17.9756C53.7084 18.6779 53.868 19.6676 53.7882 20.5615C53.6286 22.1737 52.6869 23.4348 51.2824 23.8977C50.9473 24.0094 50.7877 24.0413 50.261 24.0573C49.4789 24.0733 49.048 23.9934 48.3777 23.6582C47.9946 23.4667 47.8669 23.3709 47.4998 23.0038C47.1168 22.6207 47.037 22.5089 46.8295 22.0779C46.4305 21.2638 46.3028 20.4657 46.3986 19.5559C46.5901 17.6723 47.6594 16.3953 49.3353 16.0122C49.6864 15.9324 50.6759 15.9643 51.0749 16.076ZM66.732 12.7718C65.934 12.9155 65.0881 13.2666 64.4018 13.7295C64.0506 13.969 63.4601 14.5277 63.2207 14.831L63.0771 15.0225V14.0009V12.9793H61.2416H59.4062V22.9239V32.8526H61.3214H63.2367V29.0536V25.2545L63.4122 25.478C64.0666 26.3399 65.0561 26.9305 66.2851 27.17C66.8597 27.2817 68.2163 27.2817 68.8387 27.17C70.2113 26.9146 71.3604 26.324 72.3021 25.3822C73.6906 23.9934 74.3769 22.046 74.2971 19.6836C74.2173 17.5127 73.5151 15.7249 72.2063 14.4638C71.0093 13.2986 69.4771 12.692 67.7534 12.7079C67.3704 12.7079 66.9394 12.7399 66.732 12.7718ZM67.7534 16.076C69.142 16.4591 70.1155 17.5765 70.4188 19.1249C70.4986 19.5399 70.4826 20.6573 70.4028 21.0723C70.0836 22.5089 69.2058 23.4986 67.8971 23.9136C67.4502 24.0573 66.4926 24.1052 65.9978 23.9934C64.5294 23.6742 63.4601 22.5728 63.1409 21.0244C63.0451 20.5615 63.0451 19.5718 63.1249 19.0929C63.3005 18.215 63.6197 17.5925 64.2262 16.9859C64.7529 16.4751 65.3434 16.1558 66.0776 15.9962C66.3968 15.9324 67.4183 15.9803 67.7534 16.076ZM81.99 12.7239C80.2982 12.9793 79.0373 13.5859 77.984 14.6554C76.8508 15.7887 76.1804 17.2253 75.973 18.9333C75.8932 19.6037 75.941 20.9286 76.0687 21.5671C76.5156 23.8178 77.7765 25.5258 79.7236 26.4836C81.8144 27.5211 84.6873 27.5531 86.7142 26.5634C87.5601 26.1484 88.3422 25.5099 88.9008 24.7596C89.204 24.3606 89.8105 23.2272 89.8265 23.0197C89.8424 22.9239 89.7467 22.8761 88.3102 22.3014C86.4589 21.5671 86.6185 21.615 86.6185 21.7268C86.6185 21.8704 86.3631 22.3972 86.1875 22.6845C85.8204 23.2432 85.3097 23.6263 84.7032 23.8338C83.6658 24.185 82.5007 24.0892 81.4952 23.5944C81.1441 23.4188 80.9845 23.307 80.6653 22.9878C80.3301 22.6685 80.2344 22.5409 80.0588 22.1578C79.8353 21.6789 79.7715 21.4554 79.7077 20.9925L79.6757 20.6892L84.4479 20.6732L89.2519 20.6892L89.3158 20.354C89.3477 20.1465 89.3796 19.6516 89.3796 19.0131C89.3796 18.1352 89.3636 17.9436 89.2838 17.5286C88.7252 14.9906 87.1132 13.4103 84.5436 12.8516C84.1606 12.7718 83.8733 12.7558 83.1072 12.7399C82.5646 12.7239 82.0698 12.7239 81.99 12.7239ZM83.8893 15.8685C84.5915 16.0441 85.2299 16.523 85.5012 17.0338C85.6289 17.2732 85.7406 17.7042 85.7406 17.9596V18.1671H82.7242C81.0643 18.1671 79.7077 18.1512 79.7077 18.1512C79.7077 18.1352 79.7396 18.0235 79.8034 17.8798C80.3461 16.2516 82.0698 15.4056 83.8893 15.8685ZM98.0779 12.7718C97.1363 12.9633 96.3383 13.522 95.8275 14.3521L95.5881 14.7352V13.8572V12.9793H93.7048H91.8215V20.0028V27.0263H93.7048H95.5881L95.6041 22.2056C95.6201 17.4328 95.6201 17.4009 95.7158 17.0976C95.8595 16.6826 96.0829 16.3474 96.3702 16.1399C96.6894 15.9004 96.9767 15.8047 97.3916 15.7727C98.2854 15.7089 99.0356 16.1878 99.259 16.9699C99.3228 17.1774 99.3228 17.353 99.3069 17.7681C99.2909 18.0713 99.259 18.3746 99.243 18.4385L99.2111 18.5662H100.999H102.786L102.834 18.3267C103.026 17.4807 103.026 16.2516 102.834 15.5493C102.435 14.0169 101.302 12.9633 99.7697 12.7239C99.3707 12.676 98.461 12.692 98.0779 12.7718Z" fill="#788894"/>
</svg>
