<svg width="110" height="39" viewBox="0 0 110 39" fill="none" xmlns="http://www.w3.org/2000/svg">
<g clip-path="url(#clip0_5381_26090)">
<path d="M95.2087 25.6075C95.2087 24.289 96.2799 23.2192 97.5987 23.2192C98.9181 23.2192 99.9879 24.289 99.9879 25.6075C99.9879 26.926 98.9181 27.9951 97.5987 27.9951C96.2799 27.9951 95.2087 26.926 95.2087 25.6075Z" fill="#788894"/>
<path d="M18.9906 19.283C18.9906 17.7703 18.6981 16.648 18.1131 15.9168C17.5273 15.1864 16.6402 14.8216 15.4472 14.8216H14.1784V24.0721H15.1493C16.4742 24.0721 17.4451 23.6794 18.0633 22.8917C18.6808 22.1053 18.9907 20.9022 18.9907 19.283H18.9906ZM23.5159 19.1254C23.5159 21.8813 22.7747 24.005 21.292 25.4956C19.8094 26.9868 17.7252 27.7325 15.0385 27.7325H9.81824V11.2184H15.403C17.9934 11.2184 19.9933 11.8964 21.4026 13.2516C22.8113 14.6074 23.5159 16.5645 23.5159 19.1256V19.1254ZM37.9762 27.7324H42.1301V11.149H37.9762V27.7324ZM47.9657 21.5467C47.9657 22.604 48.1039 23.4104 48.38 23.9646C48.6565 24.5196 49.1198 24.7967 49.7712 24.7967C50.4157 24.7967 50.8714 24.5196 51.137 23.9646C51.4025 23.4104 51.5346 22.604 51.5346 21.5467C51.5346 20.4949 51.4004 19.7015 51.1315 19.1661C50.8617 18.629 50.4019 18.3602 49.7498 18.3602C49.1122 18.3602 48.6565 18.6277 48.3799 19.1597C48.104 19.6926 47.9656 20.4879 47.9656 21.5467H47.9657ZM55.7625 21.5467C55.7625 23.5611 55.2342 25.1326 54.1748 26.259C53.1161 27.3861 51.6341 27.95 49.729 27.95C47.9021 27.95 46.4478 27.3737 45.3683 26.221C44.2874 25.0683 43.7473 23.5106 43.7473 21.5468C43.7473 19.5385 44.2765 17.978 45.3358 16.8655C46.3951 15.7528 47.8806 15.1966 49.7932 15.1966C50.9751 15.1966 52.0207 15.4544 52.9266 15.9692C53.8331 16.4839 54.5331 17.2214 55.0247 18.182C55.5171 19.1411 55.7625 20.2634 55.7625 21.5467V21.5467ZM57.4122 27.7324H61.5668V15.4143H57.4122V27.7324ZM57.412 13.9243H61.5667V11.1484H57.412V13.9243ZM69.984 24.5905C70.5448 24.5905 71.2128 24.4481 71.9921 24.1655V27.2649C71.432 27.5109 70.8995 27.6871 70.3933 27.7915C69.8872 27.8973 69.2931 27.9497 68.6134 27.9497C67.2185 27.9497 66.2131 27.5994 65.5955 26.9C64.9807 26.2007 64.6724 25.1268 64.6724 23.6777V18.5997H63.2174V15.4154H64.6724V12.2696L68.8589 11.542V15.4153H71.5095V18.5998H68.8589V23.3943C68.8589 24.1918 69.2344 24.5905 69.984 24.5905ZM79.5993 24.5905C80.1602 24.5905 80.8282 24.4481 81.6075 24.1655V27.2649C81.0481 27.5109 80.5149 27.6871 80.0087 27.7915C79.5018 27.8973 78.91 27.9497 78.2288 27.9497C76.834 27.9497 75.8285 27.5994 75.2123 26.9C74.5962 26.2007 74.2878 25.1268 74.2878 23.6777V18.5997H72.8322V15.4154H74.2878V12.222L78.4735 11.542V15.4153H81.1255V18.5998H78.4736V23.3943C78.4736 24.1918 78.8491 24.5905 79.5994 24.5905H79.5993ZM86.8497 20.0461C86.9064 19.3716 87.0994 18.8775 87.4285 18.5617C87.7591 18.2466 88.1671 18.089 88.6553 18.089C89.1877 18.089 89.611 18.2659 89.9249 18.6224C90.2409 18.9769 90.4055 19.4518 90.4186 20.0461H86.8497ZM92.7083 16.6488C91.7207 15.6814 90.3198 15.1969 88.5074 15.1969C86.6021 15.1969 85.136 15.7532 84.1084 16.8658C83.0816 17.9784 82.5678 19.5747 82.5678 21.6549C82.5678 23.6692 83.1231 25.2227 84.2309 26.3132C85.3394 27.4037 86.896 27.9496 88.9007 27.9496C89.8633 27.9496 90.6918 27.884 91.386 27.7534C92.0762 27.6242 92.7442 27.3906 93.3922 27.0534L92.7539 24.2773C92.283 24.4696 91.8349 24.6174 91.4117 24.7147C90.8004 24.8565 90.1296 24.9276 89.3993 24.9276C88.5986 24.9276 87.9665 24.7321 87.5032 24.341C87.0398 23.9492 86.793 23.4087 86.7647 22.7205H94.1902V20.829C94.1902 19.0095 93.6965 17.6156 92.7083 16.6488ZM29.0293 20.0461C29.086 19.3716 29.279 18.8775 29.6081 18.5617C29.9379 18.2466 30.3466 18.089 30.8356 18.089C31.3667 18.089 31.7899 18.2659 32.1045 18.6224C32.4205 18.9769 32.5844 19.4518 32.5989 20.0461H29.0293ZM34.8885 16.6488C33.9004 15.6814 32.5 15.1969 30.6869 15.1969C28.7811 15.1969 27.3158 15.7532 26.2888 16.8658C25.2619 17.9784 24.7475 19.5747 24.7475 21.6549C24.7475 23.6692 25.302 25.2227 26.4113 26.3132C27.519 27.4037 29.0756 27.9496 31.0804 27.9496C32.043 27.9496 32.8714 27.884 33.5657 27.7534C34.2558 27.6242 34.9239 27.3906 35.5725 27.0534L34.9335 24.2773C34.4625 24.4696 34.0145 24.6174 33.5919 24.7147C32.9793 24.8565 32.3092 24.9276 31.5789 24.9276C30.7788 24.9276 30.1462 24.7321 29.6828 24.341C29.2188 23.9492 28.9726 23.4087 28.9443 22.7205H36.3698V20.829C36.3698 19.0095 35.8761 17.6156 34.8885 16.6488" fill="#788894"/>
</g>
<defs>
<clipPath id="clip0_5381_26090">
<rect width="90.1697" height="19.5717" fill="white" transform="translate(9.81824 9.78564)"/>
</clipPath>
</defs>
</svg>
