<svg width="109" height="39" viewBox="0 0 109 39" fill="none" xmlns="http://www.w3.org/2000/svg">
<path d="M44.2016 9.56834C44.1551 9.50389 44.0939 9.45144 44.0231 9.41533C43.9523 9.37921 43.8739 9.36047 43.7944 9.36065H39.3636L33.9269 27.7516L31.8907 18.8168L38.1989 10.2036C38.2428 10.1484 38.2747 10.0846 38.2926 10.0163L38.4025 9.63757C38.4112 9.60977 38.4141 9.5805 38.4112 9.55153C38.4083 9.52256 38.3995 9.49448 38.3854 9.46899C38.3713 9.4435 38.3522 9.42112 38.3293 9.4032C38.3063 9.38528 38.28 9.37219 38.2518 9.36472C38.2317 9.36043 38.2109 9.36043 38.1907 9.36472H33.7111L28.8568 16.4263L30.9174 10.0244C30.9567 9.89322 30.9423 9.75178 30.8774 9.63115C30.8125 9.51052 30.7024 9.42056 30.5713 9.38101C30.5225 9.36599 30.4716 9.35911 30.4206 9.36065H25.9695L22.117 22.4371C22.2025 20.1932 20.4595 18.4217 19.4455 17.3018C18.631 16.3896 18.1301 15.7421 18.2238 15.0213C18.2864 14.541 18.5163 14.0981 18.8731 13.7704C19.2298 13.4427 19.6905 13.2512 20.1744 13.2294C21.2821 13.1398 21.7586 13.4819 22.4631 13.8118C22.5454 13.8483 22.6338 13.8691 22.7238 13.8729C22.7962 13.872 22.8679 13.8582 22.9355 13.8321C23.0098 13.804 23.0766 13.7593 23.131 13.7015C23.1853 13.6436 23.2257 13.5741 23.2491 13.4982L24.2835 10L23.5667 9.66608L23.4609 9.61721H23.4283C22.5769 9.25303 21.6582 9.07263 20.7324 9.0878C16.8351 9.0878 13.288 11.8774 12.7016 15.3104C12.2943 17.7131 13.8296 19.4073 14.9536 20.6453L15.0514 20.7552C15.8658 21.6267 16.4278 22.3027 16.2731 23.0846C16.0857 24.1842 15.0188 24.8113 13.9885 24.8969C12.8563 24.9905 12.1477 24.6729 11.264 24.2819C11.1097 24.1903 10.9276 24.157 10.7509 24.1883C10.6663 24.2136 10.5892 24.2591 10.526 24.3208C10.4629 24.3825 10.4157 24.4586 10.3885 24.5426L9.40701 27.9227L9.28076 28.3543C10.5966 28.9705 12.0268 29.3048 13.4794 29.3358C16.8025 29.3358 19.6735 28.0611 21.3799 24.9824L20.374 28.4113C20.3547 28.4763 20.3484 28.5445 20.3556 28.6119C20.3628 28.6793 20.3833 28.7446 20.4158 28.804C20.4484 28.8635 20.4924 28.9159 20.5453 28.9582C20.5983 29.0006 20.6591 29.032 20.7242 29.0507C20.7714 29.0667 20.8209 29.075 20.8708 29.0751H25.322L26.4337 25.3L27.7858 23.3493L28.8283 28.6435C28.8542 28.7591 28.9188 28.8625 29.0113 28.9365C29.1038 29.0105 29.2188 29.0508 29.3373 29.0507H38.7039L44.3034 10.0163C44.3269 9.93926 44.3318 9.85774 44.3176 9.77845C44.3034 9.69916 44.2707 9.62436 44.222 9.5602L44.2016 9.56834Z" fill="#788894"/>
<path d="M50.0293 13.6162H51.6908C51.8038 13.6117 51.9164 13.6308 52.0216 13.6721C52.1267 13.7135 52.2221 13.7763 52.3017 13.8565C52.4359 14.0098 52.535 14.1905 52.592 14.3861C52.6489 14.5816 52.6625 14.7873 52.6316 14.9886C52.5328 16.0347 52.2574 17.0564 51.8171 18.0104C51.2673 19.2321 50.7583 20.1484 49.3085 20.3154H48.0501L50.0293 13.6162ZM46.8202 24.5384H48.7546C53.4216 24.5995 55.7836 21.3212 56.8384 17.762C57.1912 16.7284 57.4009 15.6515 57.4614 14.561C57.5312 13.2016 57.0697 11.8684 56.1746 10.8429C55.7434 10.3701 55.2173 9.99365 54.6306 9.7382C54.0439 9.48275 53.4099 9.35408 52.77 9.36059H45.4112L45.0976 10.4031C45.0841 10.4508 45.0807 10.5009 45.0877 10.55C45.0947 10.5991 45.112 10.6462 45.1384 10.6882L45.346 11.0181C45.4485 11.1768 45.5147 11.3561 45.5401 11.5433C45.5654 11.7306 45.5492 11.9211 45.4926 12.1013L40.7116 28.3909C40.6876 28.4677 40.6821 28.549 40.6955 28.6283C40.709 28.7076 40.741 28.7825 40.789 28.847C40.8365 28.9109 40.8977 28.9631 40.9683 28.9998C41.0388 29.0364 41.1168 29.0566 41.1963 29.0588H45.4804L46.8162 24.5384H46.8202Z" fill="#788894"/>
<path d="M61.2325 19.5128H61.8556C62.4583 19.5128 62.9755 20.0463 62.8941 21.3658C62.8126 22.6852 61.766 27.1527 59.6769 27.1527H58.9846L61.2325 19.5128V19.5128ZM56.4637 29.0463H59.18C63.5212 29.0463 65.0321 23.6015 65.1705 21.3088C65.3212 18.8002 63.9244 17.5825 62.4013 17.5825H59.4977L56.2397 28.7083C56.2221 28.7704 56.2298 28.837 56.2611 28.8934C56.2924 28.9499 56.3447 28.9917 56.4067 29.0097C56.4296 29.0136 56.453 29.0136 56.4759 29.0097L56.4637 29.0463Z" fill="#788894"/>
<path d="M63.0977 16.0596H64.1524L64.9669 13.2862H66.2375L65.4841 15.8682C65.4741 15.9054 65.4792 15.9451 65.4982 15.9787C65.5173 16.0122 65.5488 16.0369 65.5859 16.0473H65.6267H66.6814L68.5058 9.81656C68.5115 9.79811 68.5134 9.77873 68.5116 9.75952C68.5097 9.74031 68.5041 9.72166 68.495 9.70464C68.4859 9.68761 68.4736 9.67255 68.4587 9.66031C68.4438 9.64806 68.4266 9.63889 68.4081 9.6333H67.3208L66.5674 12.2234H65.2846L65.985 9.8247C65.9907 9.80625 65.9926 9.78687 65.9908 9.76766C65.9889 9.74846 65.9833 9.72981 65.9742 9.71278C65.9651 9.69576 65.9528 9.68069 65.9379 9.66845C65.9229 9.65621 65.9058 9.64703 65.8873 9.64145H64.7918L62.9674 15.8722C62.9625 15.8915 62.9615 15.9115 62.9644 15.9312C62.9673 15.9508 62.974 15.9697 62.9842 15.9867C62.9945 16.0038 63.0079 16.0186 63.0239 16.0304C63.0399 16.0422 63.058 16.0507 63.0773 16.0555H63.1018L63.0977 16.0596Z" fill="#788894"/>
<path d="M67.8908 16.0309H70.5786L70.8392 15.1513C70.8526 15.1172 70.852 15.0793 70.8375 15.0457C70.823 15.0121 70.7958 14.9857 70.7619 14.9721C70.7406 14.966 70.718 14.966 70.6967 14.9721H69.2388L69.7641 13.3065H71.0877L71.3483 12.4187C71.3539 12.4002 71.3559 12.3808 71.354 12.3616C71.3522 12.3424 71.3466 12.3238 71.3375 12.3067C71.3284 12.2897 71.316 12.2747 71.3011 12.2624C71.2862 12.2502 71.269 12.241 71.2506 12.2354H70.0859L70.546 10.6879H72.175L72.4275 9.80826C72.4331 9.78981 72.4351 9.77042 72.4332 9.75122C72.4314 9.73201 72.4257 9.71336 72.4167 9.69634C72.4076 9.67931 72.3952 9.66425 72.3803 9.652C72.3654 9.63976 72.3482 9.63059 72.3297 9.625H69.5809L69.5483 9.73088L67.7564 15.8395C67.749 15.8783 67.7567 15.9184 67.7779 15.9517C67.7991 15.985 67.8322 16.009 67.8705 16.0187H67.903L67.8908 16.0309Z" fill="#788894"/>
<path d="M60.1574 16.0307H61.2121L62.7841 10.6796H63.7859L64.0343 9.79996C64.0392 9.7807 64.0402 9.76068 64.0373 9.74103C64.0344 9.72138 64.0277 9.70249 64.0174 9.68546C64.0072 9.66843 63.9937 9.65359 63.9778 9.64179C63.9618 9.62999 63.9436 9.62146 63.9243 9.6167H60.8252L60.5768 10.4963C60.5719 10.5156 60.5709 10.5356 60.5738 10.5553C60.5767 10.5749 60.5835 10.5938 60.5937 10.6108C60.6039 10.6279 60.6174 10.6427 60.6334 10.6545C60.6493 10.6663 60.6675 10.6748 60.6868 10.6796H61.5338L60.023 15.8434C60.013 15.8807 60.018 15.9204 60.0371 15.9539C60.0561 15.9874 60.0877 16.0121 60.1248 16.0226H60.1655L60.1574 16.0307Z" fill="#788894"/>
<path d="M67.8949 17.6069L64.637 28.7449C64.6194 28.807 64.6271 28.8736 64.6584 28.93C64.6896 28.9865 64.742 29.0283 64.804 29.0463C64.8269 29.0501 64.8503 29.0501 64.8732 29.0463H66.775L70.0329 17.9083C70.0416 17.8767 70.0439 17.8438 70.0398 17.8113C70.0356 17.7789 70.0251 17.7475 70.0088 17.7192C69.9926 17.6908 69.9709 17.6659 69.9449 17.6459C69.919 17.626 69.8894 17.6113 69.8578 17.6028C69.8377 17.5985 69.8169 17.5985 69.7967 17.6028L67.8949 17.6069Z" fill="#788894"/>
<path d="M85.1252 17.607H83.2031L81.851 22.2251H79.5827L80.8411 17.9205C80.8497 17.889 80.852 17.856 80.8479 17.8236C80.8437 17.7911 80.8332 17.7598 80.817 17.7315C80.8007 17.7031 80.779 17.6782 80.7531 17.6582C80.7272 17.6383 80.6976 17.6236 80.666 17.6151C80.6458 17.6108 80.625 17.6108 80.6049 17.6151H78.7234L75.4655 28.7531C75.4479 28.8152 75.4556 28.8818 75.4868 28.9382C75.5181 28.9947 75.5705 29.0365 75.6325 29.0545C75.6554 29.0584 75.6788 29.0584 75.7017 29.0545H77.6076L79.0452 24.1147H81.3135L79.937 28.745C79.9217 28.8086 79.9314 28.8757 79.9639 28.9325C79.9965 28.9893 80.0495 29.0314 80.1121 29.0504H80.1732H82.0791L85.337 17.9124C85.3455 17.8803 85.3475 17.8468 85.3428 17.8139C85.3382 17.7811 85.327 17.7495 85.3099 17.721C85.2928 17.6925 85.2702 17.6677 85.2434 17.6482C85.2166 17.6286 85.1861 17.6146 85.1538 17.607C85.1336 17.603 85.1128 17.603 85.0927 17.607H85.1252Z" fill="#788894"/>
<path d="M90.004 22.274H88.0045L88.8189 19.5089H91.7511L92.2112 17.9166C92.2199 17.885 92.2222 17.8521 92.218 17.8196C92.2139 17.7872 92.2034 17.7558 92.1871 17.7275C92.1709 17.6991 92.1492 17.6742 92.1232 17.6542C92.0973 17.6343 92.0677 17.6196 92.0361 17.6111C92.016 17.6068 91.9952 17.6068 91.975 17.6111H87.1289L83.871 28.7491C83.8534 28.8112 83.861 28.8778 83.8923 28.9343C83.9236 28.9907 83.976 29.0325 84.0379 29.0505C84.0609 29.0544 84.0843 29.0544 84.1072 29.0505H88.9533L89.4135 27.4582C89.4221 27.4266 89.4245 27.3937 89.4203 27.3612C89.4162 27.3288 89.4057 27.2975 89.3894 27.2691C89.3731 27.2407 89.3514 27.2158 89.3255 27.1959C89.2996 27.1759 89.27 27.1613 89.2384 27.1528C89.2183 27.1485 89.1974 27.1485 89.1773 27.1528H86.5628L87.4506 24.184H89.7597L90.2402 22.5795C90.2487 22.5474 90.2507 22.5139 90.246 22.481C90.2414 22.4481 90.2302 22.4165 90.2131 22.388C90.196 22.3596 90.1734 22.3348 90.1466 22.3152C90.1197 22.2956 90.0893 22.2816 90.0569 22.274C90.0382 22.2698 90.0187 22.2698 89.9999 22.274H90.004Z" fill="#788894"/>
<path d="M73.0221 20.7145C73.0793 20.3504 73.2582 20.0165 73.5296 19.7672C73.8011 19.5179 74.1491 19.3681 74.5167 19.3421C74.9465 19.3178 75.3761 19.3945 75.771 19.5661C75.8591 19.6063 75.9594 19.61 76.0502 19.5764C76.141 19.5428 76.2149 19.4747 76.2556 19.3869C76.2574 19.3789 76.2574 19.3705 76.2556 19.3625C76.2556 19.3299 76.7117 17.815 76.7117 17.815C76.1197 17.5541 75.4812 17.4156 74.8343 17.4077C72.7981 17.4077 70.7619 18.9145 70.4524 20.9751C70.2325 22.3475 71.1081 23.329 71.7352 24.0702C72.228 24.6362 72.6271 25.1331 72.5253 25.7684C72.4663 26.162 72.2708 26.5225 71.9731 26.7867C71.6753 27.051 71.2942 27.2022 70.8963 27.2141C70.3792 27.268 69.8573 27.1763 69.3895 26.9494C69.3518 26.9261 69.3097 26.9106 69.2659 26.904C69.222 26.8973 69.1773 26.8996 69.1343 26.9106C69.0914 26.9216 69.0511 26.9412 69.0159 26.9681C68.9806 26.9951 68.9512 27.0289 68.9294 27.0675C68.91 27.0958 68.8962 27.1276 68.8886 27.1611L68.3959 28.8512C69.0965 29.1201 69.8405 29.2581 70.5909 29.2584C71.6553 29.2607 72.6867 28.8894 73.5053 28.2092C74.324 27.529 74.8779 26.583 75.0705 25.5362C75.2904 24.1475 74.4271 23.0928 73.7999 22.376C73.3438 21.7855 72.9366 21.3009 73.0262 20.7023L73.0221 20.7145Z" fill="#788894"/>
<path d="M96.8619 17.4159C94.8257 17.4159 92.7895 18.9226 92.48 20.9833C92.26 22.3557 93.1356 23.3371 93.7628 24.0783C94.2555 24.6444 94.6546 25.1412 94.5528 25.7765C94.4938 26.1702 94.2984 26.5306 94.0006 26.7949C93.7029 27.0591 93.3218 27.2104 92.9238 27.2222C92.4067 27.2761 91.8848 27.1844 91.4171 26.9575C91.3793 26.9342 91.3373 26.9188 91.2934 26.9121C91.2496 26.9055 91.2048 26.9077 91.1619 26.9187C91.1189 26.9298 91.0786 26.9493 91.0434 26.9763C91.0082 27.0032 90.9788 27.037 90.9569 27.0756C90.9375 27.104 90.9237 27.1358 90.9162 27.1693L90.4234 28.8593C91.124 29.1282 91.868 29.2662 92.6184 29.2666C93.6828 29.2689 94.7142 28.8976 95.5328 28.2173C96.3515 27.5371 96.9054 26.5912 97.098 25.5444C97.318 24.1557 96.4546 23.1009 95.8275 22.3842C95.351 21.8181 94.9519 21.3213 95.0496 20.7186C95.1064 20.3518 95.2867 20.0154 95.5608 19.7651C95.8348 19.5148 96.186 19.3656 96.5564 19.3421C96.9863 19.3178 97.4158 19.3945 97.8107 19.5661C97.8988 19.6063 97.9992 19.61 98.09 19.5764C98.1808 19.5428 98.2546 19.4747 98.2953 19.3869C98.2971 19.3789 98.2971 19.3705 98.2953 19.3625C98.2953 19.3299 98.7515 17.815 98.7515 17.815C98.1581 17.5541 97.5181 17.4156 96.87 17.4077L96.8619 17.4159Z" fill="#788894"/>
</svg>
