<svg width="109" height="39" viewBox="0 0 109 39" fill="none" xmlns="http://www.w3.org/2000/svg">
<g clip-path="url(#clip0_5381_26089)">
<path d="M38.7185 25.4615H30.7189C30.4497 25.4615 30.2497 25.2529 30.2497 24.9749V23.9704C30.2421 23.7228 30.3189 23.6153 30.4724 23.422L36.8416 15.8117H30.6033C30.334 15.8117 30.134 15.6032 30.134 15.3252V14.6139C30.134 14.3435 30.334 14.1274 30.6033 14.1274H38.6796C38.9488 14.1274 39.1488 14.3359 39.1488 14.6139V15.6412C39.1488 15.8269 39.0872 15.9811 38.9488 16.1516L32.5721 23.7847H38.7261C38.9953 23.7847 39.1953 23.9932 39.1953 24.2712V24.9825C39.1878 25.2529 38.9878 25.4615 38.7185 25.4615V25.4615ZM54.4799 25.67C55.0572 25.6624 55.48 25.5386 55.641 25.3529C55.6951 25.2834 55.7254 25.2063 55.7178 25.1291C55.7102 25.0673 55.7102 25.0673 55.5567 24.3103L55.5491 24.2951C55.5189 24.0942 55.3794 24.0095 55.2648 24.0095H55.2497C55.2497 24.0095 55.1037 24.0019 54.9653 24.0019C54.5577 23.9867 54.2193 23.9248 54.2117 23.3145V10.4341C54.2117 10.218 54.0885 10.0019 53.8431 9.99316H53.7739L52.6581 10.2864C52.4656 10.3092 52.2732 10.4482 52.2808 10.7034V23.3428C52.2872 24.8435 53.0646 25.67 54.4799 25.67V25.67ZM77.0634 25.4615H76.0633C75.7941 25.4615 75.5941 25.2529 75.5941 24.9749V17.2332C75.5789 15.9203 75.194 15.5565 73.8253 15.5413C72.2792 15.5413 70.7104 15.9431 70.1871 16.0897V24.9825C70.1871 25.2605 70.0022 25.4691 69.7406 25.4691H68.7254C68.4562 25.4691 68.2562 25.2605 68.2562 24.9825V16.2906C68.241 15.487 68.3178 14.931 69.4249 14.5596C70.4866 14.1806 72.5246 13.8646 73.8707 13.8646C76.432 13.8646 77.5326 14.8224 77.5326 17.0475V24.9825C77.525 25.2529 77.325 25.4615 77.0634 25.4615V25.4615ZM87.0707 15.8584C86.702 15.7585 85.663 15.5185 84.4943 15.5185C82.3482 15.5413 81.4486 16.1364 81.4248 19.8145C81.4475 23.8477 82.6174 24.0638 84.517 24.0866V24.1713V24.079C85.7019 24.079 86.7172 23.8238 87.0783 23.7239V15.8584H87.0707ZM87.6016 25.3148L87.4859 25.3453C86.8556 25.5071 85.9863 25.7395 84.4629 25.7395H84.4554C80.2637 25.7319 79.4322 23.5534 79.4322 19.7906C79.4398 15.4794 80.7632 13.8722 84.3321 13.8646C85.5938 13.8646 86.4555 14.0351 87.0783 14.1893L87.0707 10.7121C87.0631 10.5579 87.1323 10.357 87.4859 10.2951L88.6017 10.0019H88.6633C88.9174 10.0095 89.0093 10.2418 89.0093 10.4427V23.5002C89.0244 24.3179 88.9325 25.0206 87.6016 25.3148V25.3148ZM95.732 24.0551C92.9858 24.0399 92.8474 22.5869 92.8247 19.8058C92.8474 17.0095 92.9782 15.5489 95.732 15.5337C98.4782 15.5489 98.6241 17.0095 98.6393 19.8058C98.6166 22.5869 98.4782 24.0475 95.732 24.0551ZM95.732 13.857C91.2019 13.8646 90.817 16.9324 90.8094 19.8058C90.8094 22.6716 91.1943 25.7243 95.732 25.7319C100.262 25.7243 100.647 22.6803 100.655 19.8058C100.647 16.801 100.263 13.8646 95.732 13.857V13.857ZM64.3099 19.8677C63.8558 19.8753 61.6556 19.9068 60.7788 20.099L60.7096 20.1142C59.7246 20.3379 58.9484 20.5236 58.9332 22.0222C58.9332 23.9151 60.3409 24.0856 61.7789 24.0932V24.1779V24.0932C62.6784 24.0932 63.5325 23.9618 64.3099 23.699V19.8677ZM66.256 17.1094V23.1201C66.2787 24.6112 65.9024 25.0901 64.4407 25.4376C63.8017 25.5766 62.8179 25.7308 61.7561 25.7384C60.1949 25.7308 56.9406 25.7308 56.933 22.1145C56.9255 19.2715 58.5797 18.7687 60.5863 18.4603C61.9021 18.2442 63.2406 18.2127 63.9174 18.2127H64.2872V17.1854C64.2796 16.5056 64.2796 16.0962 63.6644 15.8562C63.2871 15.6944 62.7184 15.6162 61.8794 15.6162C60.4944 15.6162 59.2489 15.9333 58.4261 16.1494L58.1104 16.2265C58.0802 16.2341 58.0412 16.2417 57.9948 16.2493C57.8488 16.2493 57.6866 16.157 57.6336 15.9637L57.6261 15.9485L57.4412 14.9831V14.9288C57.4412 14.7051 57.6023 14.5661 57.7569 14.5194C58.4186 14.2642 60.1722 13.8624 62.0643 13.8624C63.4417 13.8624 64.4407 14.0481 65.1099 14.426C66.2636 15.0472 66.256 16.1907 66.256 17.1094V17.1094ZM48.0415 23.7076C47.2641 23.9704 46.4111 24.1018 45.5105 24.1018V24.1865V24.1018C44.0725 24.0866 42.6648 23.9237 42.6648 22.0309C42.6724 20.5247 43.4497 20.3466 44.4412 20.1229L44.5104 20.1077C45.3872 19.9144 47.5874 19.8764 48.0415 19.8764V23.7076V23.7076ZM48.8416 14.4282C48.1723 14.0492 47.1722 13.8646 45.7959 13.8646C43.9038 13.8646 42.1577 14.2664 41.4885 14.5216C41.3425 14.5683 41.1804 14.7073 41.1728 14.931V14.9777L41.3566 15.9431L41.3642 15.9659C41.4258 16.1592 41.5793 16.2515 41.7253 16.2515C41.7718 16.2515 41.8096 16.2439 41.841 16.2287L42.1567 16.1516C42.9794 15.9431 44.226 15.6184 45.6099 15.6184C46.4478 15.6184 47.0176 15.6955 47.4025 15.8584C48.0177 16.0984 48.0177 16.5078 48.0253 17.1876V18.1997H47.6479C46.9711 18.1997 45.6326 18.2301 44.3168 18.4473C42.3091 18.7644 40.6473 19.2585 40.6636 22.1091C40.6636 25.7253 43.9168 25.7329 45.4867 25.7329C46.5484 25.7329 47.5247 25.5711 48.1712 25.4321C49.633 25.0846 50.0016 24.6057 49.9865 23.1147V17.1094C49.98 16.1907 49.98 15.0472 48.8416 14.4282V14.4282Z" fill="#788894"/>
<path d="M24.6114 17.1867C23.2956 15.5252 21.4652 13.9191 19.0574 12.4661L19.0499 12.4585C16.6345 11.037 14.3576 10.2106 12.3044 9.87068C11.0276 9.65457 10.4124 9.90109 10.1356 10.0716C9.85882 10.2334 9.3431 10.6591 8.88144 11.9025C8.143 13.9039 7.71161 16.3451 7.6889 19.211V19.2186C7.70404 22.0844 8.143 24.5343 8.88144 26.5346C9.3431 27.7867 9.85882 28.2037 10.1356 28.3731C10.4124 28.5349 11.0276 28.7901 12.3044 28.574C14.3587 28.2341 16.627 27.4001 19.0499 25.9786L19.0574 25.971C21.4652 24.518 23.2956 22.9119 24.6114 21.2504C25.4266 20.2155 25.5272 19.5433 25.5272 19.2186C25.5272 18.8939 25.4342 18.2227 24.6114 17.1867Z" fill="#788894"/>
</g>
<defs>
<clipPath id="clip0_5381_26089">
<rect width="92.9657" height="18.8727" fill="white" transform="translate(7.6889 9.78564)"/>
</clipPath>
</defs>
</svg>
